<?xml version="1.0" encoding="UTF-8" standalone="no"?>
<!-- Created with Inkscape (http://www.inkscape.org/) -->

<svg
   version="1.1"
   id="svg1"
   width="793.70135"
   height="1122.52"
   viewBox="0 0 793.70135 1122.52"
   sodipodi:docname="main.pdf"
   xmlns:inkscape="http://www.inkscape.org/namespaces/inkscape"
   xmlns:sodipodi="http://sodipodi.sourceforge.net/DTD/sodipodi-0.dtd"
   xmlns="http://www.w3.org/2000/svg"
   xmlns:svg="http://www.w3.org/2000/svg">
  <defs
     id="defs1" />
  <sodipodi:namedview
     id="namedview1"
     pagecolor="#ffffff"
     bordercolor="#000000"
     borderopacity="0.25"
     inkscape:showpageshadow="2"
     inkscape:pageopacity="0.0"
     inkscape:pagecheckerboard="0"
     inkscape:deskcolor="#d1d1d1">
    <inkscape:page
       x="0"
       y="0"
       inkscape:label="1"
       id="page1"
       width="793.70135"
       height="1122.52"
       margin="0"
       bleed="0" />
  </sodipodi:namedview>
  <g
     id="g1"
     inkscape:groupmode="layer"
     inkscape:label="1">
    <g
       id="g2"
       aria-label="X&#10;π"
       transform="matrix(1.3333333,0,0,1.3333333,198.28267,179.68667)">
      <path
         id="path2"
         d="M 4.8270625,-4.0892188 3.9950313,-6.0814063 c -0.035156,-0.070312 -0.046875,-0.1171875 -0.046875,-0.1289062 0,-0.058594 0.1640625,-0.2460938 0.5859375,-0.28125 0.09375,-0.011719 0.1992187,-0.023437 0.1992187,-0.1875 0,-0.1289063 -0.1171875,-0.1289063 -0.1523437,-0.1289063 -0.4101563,0 -0.8320313,0.035156 -1.2539063,0.035156 -0.2460937,0 -0.8671875,-0.035156 -1.1132812,-0.035156 -0.058594,0 -0.1875,0 -0.1875,0.1992188 0,0.1171875 0.1054687,0.1171875 0.234375,0.1171875 0.5976562,0 0.65625,0.09375 0.75,0.3164062 l 1.171875,2.7773438 -2.0976563,2.2617187 -0.1289062,0.1054688 c -0.4921875,0.52734375 -0.96093755,0.69140625 -1.4648438,0.7265625 -0.12890625,0 -0.22265625,0 -0.22265625,0.19921875 0,0 0,0.10546875 0.12890625,0.10546875 0.3046875,0 0.6328125,-0.03515625 0.9375,-0.03515625 0.3632813,0 0.7617188,0.03515625 1.1132813,0.03515625 0.058594,0 0.1757812,0 0.1757812,-0.19921875 0,-0.10546875 -0.09375,-0.10546875 -0.1171875,-0.10546875 -0.082031,-0.0117188 -0.3984375,-0.0351563 -0.3984375,-0.31640625 0,-0.15234375 0.1523438,-0.31640625 0.2695313,-0.44531255 L 3.397375,-2.1439063 4.288,-3.1165625 5.2958125,-0.73765625 c 0.046875,0.10546875 0.046875,0.1171875 0.046875,0.140625 0,0.0820313 -0.1875,0.24609375 -0.5742187,0.29296875 -0.1054688,0 -0.1992188,0.0117188 -0.1992188,0.1875 0,0.1171875 0.1171875,0.1171875 0.1523438,0.1171875 0.28125,0 0.9726562,-0.03515625 1.2539062,-0.03515625 0.2460938,0 0.8554688,0.03515625 1.1015625,0.03515625 0.070312,0 0.1992188,0 0.1992188,-0.1875 0,-0.1171875 -0.1054688,-0.1171875 -0.1875,-0.1171875 C 6.4208125,-0.31578125 6.4090938,-0.3509375 6.2333125,-0.749375 5.8465938,-1.6751563 5.178625,-3.2220313 4.94425,-3.8196875 c 0.6796875,-0.703125 1.734375,-1.8867188 2.0507813,-2.1679688 0.28125,-0.234375 0.6679687,-0.4804687 1.265625,-0.5039062 0.1289062,-0.011719 0.2109375,-0.011719 0.2109375,-0.1992188 0,-0.011719 0,-0.1171875 -0.1289063,-0.1171875 -0.2929687,0 -0.6210937,0.035156 -0.9375,0.035156 -0.3632812,0 -0.7382812,-0.035156 -1.1015625,-0.035156 -0.058594,0 -0.1875,0 -0.1875,0.1992188 0,0.070312 0.046875,0.1054687 0.1171875,0.1171875 0.09375,0.011719 0.3984375,0.023437 0.3984375,0.3046875 0,0.140625 -0.1054687,0.2695312 -0.1875,0.3632812 z m 0,0"
         style="fill:#000000;fill-opacity:1;fill-rule:nonzero;stroke:none" />
      <path
         id="path3"
         d="m 10.422766,-1.0364844 h 0.832031 c -0.105469,0.42187502 -0.257813,1.05468752 -0.257813,1.60546877 0,0.28125 0.03516,0.46875003 0.07031,0.62109373 0.117187,0.3515625 0.210937,0.375 0.316406,0.375 0.164063,0 0.328125,-0.1523437 0.328125,-0.3164062 0,-0.058594 -0.01172,-0.082031 -0.05859,-0.1523438 -0.128906,-0.25781248 -0.257812,-0.65624998 -0.257812,-1.23046873 0,-0.12890625 0,-0.41015625 0.105469,-0.90234377 h 0.867187 c 0.128906,0 0.1875,0 0.257813,-0.058594 0.09375,-0.070312 0.117187,-0.1757813 0.117187,-0.2109375 0,-0.1992188 -0.175781,-0.1992188 -0.292969,-0.1992188 H 9.8133906 c -0.28125,0 -0.4804687,0.058594 -0.796875,0.3515625 -0.1757812,0.16406252 -0.4453125,0.53906252 -0.4453125,0.59765627 0,0.0820313 0.09375,0.0820313 0.1171875,0.0820313 0.070312,0 0.082031,-0.0117188 0.1289063,-0.0703125 0.3515625,-0.49218747 0.7851562,-0.49218747 0.9375,-0.49218747 H 10.176672 C 9.9657344,-0.27476563 9.5907344,0.55726562 9.3797969,0.96742187 9.3329219,1.0611719 9.2626094,1.2135156 9.2391719,1.2369531 c 0,0.023437 -0.011719,0.058594 -0.011719,0.1054688 0,0.1054687 0.082031,0.2226562 0.2460938,0.2226562 0.2695312,0 0.3515625,-0.3164062 0.515625,-0.93749998 z m 0,0"
         style="fill:#000000;fill-opacity:1;fill-rule:nonzero;stroke:none" />
    </g>
  </g>
</svg>
