<?xml version="1.0" encoding="UTF-8" standalone="no"?>
<!-- Created with Inkscape (http://www.inkscape.org/) -->

<svg
   version="1.1"
   id="svg1"
   width="140.40884"
   height="31.62109"
   viewBox="0 0 140.40884 31.621089"
   xmlns="http://www.w3.org/2000/svg"
   xmlns:svg="http://www.w3.org/2000/svg">
  <defs
     id="defs1" />
  <g
     id="g1"
     transform="translate(-134.8125,-183.14453)">
    <g
       id="g2"
       aria-label="hithereX&#10;π"
       transform="matrix(1.3333333,0,0,1.3333333,133.90533,202.268)">
      <path
         id="path2"
         d="m 8.5788125,-6.2801016 c 0,-1.0546875 -0.2109375,-2.765625 -2.6484375,-2.765625 -1.6992187,0 -2.5195312,1.359375 -2.765625,2.0390625 H 3.141313 v -7.3359379 l -2.4609375,0.234375 v 0.539063 c 1.21875,0 1.40625,0.117187 1.40625,1.113281 v 11.0273439 c 0,0.78515629 -0.082031,0.89062504 -1.40625,0.89062504 v 0.5390625 c 0.4921875,-0.046875 1.40625,-0.046875 1.9453125,-0.046875 0.5390625,0 1.4648438,0 1.9570313,0.046875 v -0.5390625 c -1.3125,0 -1.3945313,-0.0820313 -1.3945313,-0.89062504 v -3.9609375 c 0,-1.8984375 1.1484375,-3.328125 2.6015625,-3.328125 1.5234375,0 1.6875,1.359375 1.6875,2.3554688 v 4.9335937 c 0,0.78515629 -0.082031,0.89062504 -1.40625,0.89062504 v 0.5390625 c 0.5039063,-0.046875 1.40625,-0.046875 1.9453125,-0.046875 0.5390625,0 1.4648438,0 1.96875,0.046875 v -0.5390625 c -1.3242187,0 -1.40625,-0.0820313 -1.40625,-0.89062504 z M 13.75557,-12.725414 c 0,-0.457031 -0.363281,-0.84375 -0.84375,-0.84375 -0.457031,0 -0.84375,0.363281 -0.84375,0.84375 0,0.457031 0.363282,0.84375 0.84375,0.84375 0.457032,0 0.84375,-0.363281 0.84375,-0.84375 z m -2.414062,3.9023437 v 0.5390625 c 1.160156,0 1.324219,0.1289062 1.324219,1.1132812 v 5.7421875 c 0,0.78515629 -0.08203,0.89062504 -1.40625,0.89062504 v 0.5390625 c 0.492187,-0.046875 1.382812,-0.046875 1.898437,-0.046875 0.492188,0 1.347656,0 1.816406,0.046875 v -0.5390625 c -1.21875,0 -1.253906,-0.1171875 -1.253906,-0.86718754 v -7.640625 z m 13.728515,0.4804687 h 2.894532 v -0.5390625 h -2.894532 v -3.8203129 h -0.375 c -0.03516,2.121094 -0.761718,3.9843754 -2.519531,4.0312504 v 0.328125 h 1.804688 v 5.8007813 c 0,0.3984375 0,2.70703124 2.390625,2.70703124 1.21875,0 1.921875,-1.19531254 1.921875,-2.73046874 v -1.171875 h -0.363282 v 1.1601562 c 0,1.4179688 -0.5625,2.36718754 -1.429687,2.36718754 -0.597656,0 -1.429688,-0.41015625 -1.429688,-2.28515624 z m 12.779297,2.0625 c 0,-1.0546875 -0.210937,-2.765625 -2.648437,-2.765625 -1.699219,0 -2.519531,1.359375 -2.765625,2.0390625 h -0.02344 v -7.3359379 l -2.460937,0.234375 v 0.539063 c 1.21875,0 1.40625,0.117187 1.40625,1.113281 v 11.0273439 c 0,0.78515629 -0.08203,0.89062504 -1.40625,0.89062504 v 0.5390625 c 0.492187,-0.046875 1.40625,-0.046875 1.945312,-0.046875 0.539063,0 1.464844,0 1.957032,0.046875 v -0.5390625 c -1.3125,0 -1.394532,-0.0820313 -1.394532,-0.89062504 v -3.9609375 c 0,-1.8984375 1.148438,-3.328125 2.601563,-3.328125 1.523437,0 1.6875,1.359375 1.6875,2.3554688 v 4.9335937 c 0,0.78515629 -0.08203,0.89062504 -1.40625,0.89062504 v 0.5390625 c 0.503906,-0.046875 1.40625,-0.046875 1.945312,-0.046875 0.539063,0 1.464844,0 1.96875,0.046875 v -0.5390625 c -1.324218,0 -1.40625,-0.0820313 -1.40625,-0.89062504 z m 9.852539,1.4296875 c 0.08203,-0.082031 0.08203,-0.1289062 0.08203,-0.3398437 0,-2.0976563 -1.113282,-3.9375 -3.46875,-3.9375 -2.191407,0 -3.925782,2.0859375 -3.925782,4.6289062 0,2.6835938 1.957032,4.66406254 4.148438,4.66406254 2.308594,0 3.222656,-2.19140624 3.222656,-2.62500004 0,-0.140625 -0.128906,-0.140625 -0.164062,-0.140625 -0.140625,0 -0.164063,0.035156 -0.246094,0.2929688 -0.457031,1.39453124 -1.59375,2.09765624 -2.671875,2.09765624 -0.890625,0 -1.769531,-0.4921875 -2.332031,-1.40625004 -0.644532,-1.0429687 -0.644532,-2.2617187 -0.644532,-3.234375 z m -5.976562,-0.3164062 c 0.152344,-2.9765625 1.734375,-3.6328125 2.566406,-3.6328125 1.40625,0 2.355469,1.3242187 2.378906,3.6328125 z m 9.591797,0.2929687 c 0,-1.9804687 0.855469,-3.84375 2.402344,-3.84375 0.140625,0 0.292968,0.023437 0.433593,0.082031 0,0 -0.457031,0.140625 -0.457031,0.6796875 0,0.5039062 0.398438,0.703125 0.703125,0.703125 0.246094,0 0.703125,-0.140625 0.703125,-0.7265625 0,-0.65625 -0.65625,-1.0664063 -1.359375,-1.0664063 -1.570312,0 -2.25,1.5234375 -2.460937,2.25 H 51.2585 v -2.25 l -2.390625,0.2226563 v 0.5390625 c 1.21875,0 1.40625,0.1289062 1.40625,1.1132812 v 5.7421875 c 0,0.78515629 -0.09375,0.89062504 -1.40625,0.89062504 v 0.5390625 c 0.492188,-0.046875 1.441406,-0.046875 1.980469,-0.046875 0.597656,0 1.652344,0 2.214844,0.046875 v -0.5390625 c -1.488282,0 -1.746094,0 -1.746094,-0.92578124 z m 12.099609,0.023437 c 0.08203,-0.082031 0.08203,-0.1289062 0.08203,-0.3398437 0,-2.0976563 -1.113281,-3.9375 -3.46875,-3.9375 -2.191406,0 -3.925781,2.0859375 -3.925781,4.6289062 0,2.6835938 1.957031,4.66406254 4.148438,4.66406254 2.308593,0 3.222656,-2.19140624 3.222656,-2.62500004 0,-0.140625 -0.128906,-0.140625 -0.164063,-0.140625 -0.140625,0 -0.164062,0.035156 -0.246093,0.2929688 -0.457032,1.39453124 -1.59375,2.09765624 -2.671875,2.09765624 -0.890625,0 -1.769532,-0.4921875 -2.332032,-1.40625004 -0.644531,-1.0429687 -0.644531,-2.2617187 -0.644531,-3.234375 z m -5.976562,-0.3164062 c 0.152343,-2.9765625 1.734375,-3.6328125 2.566406,-3.6328125 1.40625,0 2.355469,1.3242187 2.378906,3.6328125 z m 0,0"
         style="fill:#000000;fill-opacity:1;fill-rule:nonzero;stroke:none" />
      <path
         id="path3"
         d="m 75.856156,-4.8504141 -1.125,-2.625 c 0.152344,-0.28125 0.503907,-0.328125 0.65625,-0.3398437 0.07031,0 0.199219,-0.011719 0.199219,-0.2109375 0,-0.140625 -0.105469,-0.140625 -0.175781,-0.140625 -0.210938,0 -0.445313,0.023437 -0.644531,0.023437 h -0.691407 c -0.738281,0 -1.265625,-0.023437 -1.277343,-0.023437 -0.09375,0 -0.210938,0 -0.210938,0.234375 0,0.1171875 0.105469,0.1171875 0.257813,0.1171875 0.703125,0 0.75,0.1171875 0.867187,0.4101562 l 1.417969,3.3164063 -2.589844,2.7773437 c -0.433594,0.46875004 -0.949219,0.91406254 -1.828125,0.96093754 -0.140625,0.0117188 -0.234375,0.0117188 -0.234375,0.234375 0,0.03515625 0.01172,0.1171875 0.140625,0.1171875 0.164063,0 0.339844,-0.0234375 0.515625,-0.0234375 h 0.5625 c 0.375,0 0.796875,0.0234375 1.171875,0.0234375 0.08203,0 0.222656,0 0.222656,-0.2109375 0,-0.12890625 -0.08203,-0.140625 -0.152343,-0.140625 -0.246094,-0.0234375 -0.398438,-0.15234375 -0.398438,-0.33984375 0,-0.2109375 0.140625,-0.35156249 0.492188,-0.70312499 l 1.066406,-1.1601563 c 0.257812,-0.28125 0.890625,-0.9726562 1.160156,-1.2304687 l 1.253906,2.94140624 c 0.01172,0.0234375 0.05859,0.140625 0.05859,0.15234375 0,0.10546875 -0.269531,0.31640625 -0.644531,0.33984375 -0.07031,0 -0.210938,0.0117188 -0.210938,0.234375 0,0.1171875 0.117188,0.1171875 0.1875,0.1171875 0.199219,0 0.433594,-0.0234375 0.644532,-0.0234375 h 1.3125 c 0.210937,0 0.445312,0.0234375 0.644531,0.0234375 0.08203,0 0.210937,0 0.210937,-0.22265625 0,-0.12890625 -0.117187,-0.12890625 -0.222656,-0.12890625 -0.714844,-0.0117188 -0.738281,-0.0703125 -0.949219,-0.50390625 L 75.97334,-4.5691641 77.485059,-6.1863516 c 0.117187,-0.1289062 0.398437,-0.421875 0.503906,-0.5390625 0.515625,-0.5390625 0.996094,-1.03125 1.957031,-1.0898437 0.128906,-0.011719 0.246094,-0.011719 0.246094,-0.2109375 0,-0.140625 -0.105469,-0.140625 -0.152344,-0.140625 -0.175781,0 -0.351562,0.023437 -0.515625,0.023437 H 78.97334 c -0.386719,0 -0.808594,-0.023437 -1.171875,-0.023437 -0.08203,0 -0.234375,0 -0.234375,0.2226562 0,0.1171875 0.09375,0.1289063 0.164062,0.1289063 0.1875,0.023437 0.386719,0.1171875 0.386719,0.3398437 l -0.01172,0.035156 c -0.01172,0.082031 -0.03516,0.1992187 -0.164062,0.3398437 z M 96.6335,-6.4793203 h 1.347656 c -0.316406,1.3476562 -0.515625,2.2148437 -0.515625,3.1757812 0,0.1640625 0,1.453125 0.480469,1.453125 0.257813,0 0.46875,-0.2226562 0.46875,-0.4335937 0,-0.058594 0,-0.082031 -0.08203,-0.2578125 -0.328125,-0.8203125 -0.328125,-1.8515625 -0.328125,-1.9335938 0,-0.070312 0,-0.9257812 0.257812,-2.0039062 h 1.335938 c 0.152344,0 0.550785,0 0.550785,-0.375 0,-0.2695313 -0.22266,-0.2695313 -0.445316,-0.2695313 h -3.925782 c -0.28125,0 -0.679687,0 -1.230468,0.5859375 -0.316407,0.3515625 -0.691407,0.984375 -0.691407,1.0546875 0,0.070312 0.05859,0.09375 0.128907,0.09375 0.08203,0 0.09375,-0.035156 0.152343,-0.1054687 0.621094,-0.984375 1.242188,-0.984375 1.546875,-0.984375 h 0.679688 c -0.269531,0.9023437 -0.5625,1.9453125 -1.546875,4.03125 -0.09375,0.1992187 -0.09375,0.2226562 -0.09375,0.2929687 0,0.2460938 0.210937,0.3046875 0.328125,0.3046875 0.339844,0 0.433594,-0.3046875 0.585937,-0.8085937 0.1875,-0.609375 0.1875,-0.6328125 0.304688,-1.1132813 z m 0,0"
         style="fill:#000000;fill-opacity:1;fill-rule:nonzero;stroke:none" />
    </g>
    <path
       id="path4"
       d="M 0,0 H 17.828"
       style="fill:none;stroke:#000000;stroke-width:0.574;stroke-linecap:butt;stroke-linejoin:miter;stroke-miterlimit:10;stroke-dasharray:none;stroke-opacity:1"
       transform="matrix(1.3333333,0,0,-1.3333333,251.45067,202.392)" />
    <path
       id="path5"
       d="m 4.6512578,-4.8866875 c -0.375,0.070312 -0.5625,0.328125 -0.5625,0.5976563 0,0.28125 0.2226563,0.375 0.3984375,0.375 0.328125,0 0.609375,-0.28125 0.609375,-0.6445313 0,-0.375 -0.375,-0.7148437 -0.9726562,-0.7148437 -0.4804688,0 -1.03125,0.2226562 -1.5351563,0.9492187 -0.082031,-0.6328125 -0.5625,-0.9492187 -1.03125,-0.9492187 -0.46875,0 -0.71484374,0.3632812 -0.85546874,0.6210937 -0.19921875,0.4335938 -0.375,1.1484375 -0.375,1.2070313 0,0.046875 0.046875,0.1054687 0.12890625,0.1054687 0.09375,0 0.10546875,-0.011719 0.17578125,-0.28125 0.17578125,-0.7148437 0.41015624,-1.40625 0.89062504,-1.40625 0.28125,0 0.3632812,0.1992188 0.3632812,0.5390625 0,0.2695313 -0.1171875,0.7382813 -0.1992187,1.1015625 L 1.3465703,-2.097625 c -0.046875,0.234375 -0.1757812,0.7734375 -0.234375,0.984375 -0.082031,0.31640625 -0.21093749,0.87890625 -0.21093749,0.9375 0,0.1640625 0.12890629,0.29296875 0.30468749,0.29296875 0.1289063,0 0.3632813,-0.08203125 0.4335938,-0.31640625 0.035156,-0.10546875 0.4804687,-1.9101562 0.5507812,-2.1796875 0.058594,-0.2578125 0.1289063,-0.515625 0.1875,-0.7734375 0.046875,-0.1757812 0.09375,-0.3632812 0.1289063,-0.515625 0.035156,-0.1054687 0.3632812,-0.6914062 0.65625,-0.9609375 0.1523437,-0.1289062 0.4570312,-0.3984375 0.9492187,-0.3984375 0.1875,0 0.3867188,0.035156 0.5390625,0.140625 z m 4.5439453,3.46875 c -0.058594,0.1992188 -0.058594,0.2226563 -0.2226562,0.4453125 -0.2695313,0.33984375 -0.796875,0.85546875 -1.359375,0.85546875 -0.4804688,0 -0.7617188,-0.4453125 -0.7617188,-1.14843745 0,-0.65625 0.375,-1.9921875 0.5976563,-2.4960938 0.4101562,-0.84375 0.9726562,-1.265625 1.4414062,-1.265625 0.7851563,0 0.9375,0.9726563 0.9375,1.0664063 0,0.011719 -0.035156,0.1757812 -0.046875,0.1992187 z M 9.9569219,-4.48825 C 9.8280156,-4.7929375 9.5116094,-5.2734062 8.8905156,-5.2734062 c -1.359375,0 -2.8125,1.7460937 -2.8125,3.515625 0,1.1835937 0.6914063,1.87499995 1.5,1.87499995 0.65625,0 1.21875,-0.515625 1.5585938,-0.90234375 0.1171875,0.703125 0.6796875,0.90234375 1.0429686,0.90234375 0.351563,0 0.644531,-0.2109375 0.855469,-0.64453125 0.1875,-0.41015625 0.363281,-1.1367187 0.363281,-1.1835937 0,-0.058594 -0.04687,-0.1054688 -0.117187,-0.1054688 -0.117188,0 -0.128907,0.058594 -0.175782,0.234375 -0.175781,0.71484375 -0.398437,1.46484375 -0.890625,1.46484375 -0.3515621,0 -0.3749996,-0.31640625 -0.3749996,-0.55078125 0,-0.28125 0.035156,-0.4101562 0.140625,-0.8789062 0.082032,-0.2929688 0.1523436,-0.5625 0.2460936,-0.9023438 0.433594,-1.7929687 0.550781,-2.2265625 0.550781,-2.296875 0,-0.1640625 -0.140625,-0.2929687 -0.316406,-0.2929687 -0.375,0 -0.4804686,0.4101562 -0.5039061,0.5507812 z M 17.75575,-7.9921562 c 0.01172,-0.046875 0.03516,-0.1289063 0.03516,-0.1875 0,-0.1171875 -0.117187,-0.1171875 -0.140625,-0.1171875 -0.01172,0 -0.597656,0.046875 -0.65625,0.058594 -0.210937,0.011719 -0.386719,0.035156 -0.597656,0.046875 -0.304688,0.023437 -0.386719,0.035156 -0.386719,0.2578125 0,0.1171875 0.09375,0.1171875 0.269531,0.1171875 0.585938,0 0.597657,0.1054688 0.597657,0.2226563 0,0.070312 -0.02344,0.1757812 -0.03516,0.2109375 L 16.103406,-4.48825 C 15.9745,-4.7929375 15.658094,-5.2734062 15.037,-5.2734062 c -1.359375,0 -2.8125,1.7460937 -2.8125,3.515625 0,1.1835937 0.691406,1.87499995 1.5,1.87499995 0.65625,0 1.21875,-0.515625 1.558594,-0.90234375 0.117187,0.703125 0.679687,0.90234375 1.042968,0.90234375 0.351563,0 0.644532,-0.2109375 0.855469,-0.64453125 0.1875,-0.41015625 0.363281,-1.1367187 0.363281,-1.1835937 0,-0.058594 -0.04687,-0.1054688 -0.117187,-0.1054688 -0.117188,0 -0.128906,0.058594 -0.175781,0.234375 -0.175782,0.71484375 -0.398438,1.46484375 -0.890625,1.46484375 -0.351563,0 -0.375,-0.31640625 -0.375,-0.55078125 0,-0.046875 0,-0.3046875 0.08203,-0.6328125 z m -2.414063,6.5742187 c -0.05859,0.1992188 -0.05859,0.2226563 -0.222656,0.4453125 -0.269531,0.33984375 -0.796875,0.85546875 -1.359375,0.85546875 -0.480469,0 -0.761719,-0.4453125 -0.761719,-1.14843745 0,-0.65625 0.375,-1.9921875 0.597657,-2.4960938 0.410156,-0.84375 0.972656,-1.265625 1.441406,-1.265625 0.785156,0 0.9375,0.9726563 0.9375,1.0664063 0,0.011719 -0.03516,0.1757812 -0.04687,0.1992187 z m 0,0"
       style="fill:#000000;fill-opacity:1;fill-rule:nonzero;stroke:none"
       aria-label="rad"
       transform="matrix(1.3333333,0,0,1.3333333,251.45067,214.60933)" />
  </g>
</svg>
