<?xml version="1.0" encoding="UTF-8" standalone="no"?>
<!-- Created with Inkscape (http://www.inkscape.org/) -->

<svg
   version="1.1"
   id="svg1"
   width="82.699219"
   height="26"
   viewBox="0 0 82.699218 26"
   xmlns="http://www.w3.org/2000/svg"
   xmlns:svg="http://www.w3.org/2000/svg">
  <defs
     id="defs1" />
  <g
     id="g1"
     transform="translate(-199.21875,-165.82032)">
    <g
       id="g2"
       aria-label="π+2"
       transform="matrix(1.3333333,0,0,1.3333333,198.28267,189.52267)">
      <path
         id="path2"
         d="m 6.959875,-10.136141 h 3.046875 c -0.7265625,3.0117191 -1.1835937,4.9687504 -1.1835937,7.1250004 0,0.375 0,3.28124998 1.1015625,3.28124998 0.5625002,0 1.0429692,-0.515625 1.0429692,-0.97265625 0,-0.12890625 0,-0.1875 -0.1875,-0.58593753 -0.726563,-1.8632812 -0.726563,-4.171875 -0.726563,-4.359375 0,-0.1640625 0,-2.0742187 0.574219,-4.4882816 h 3.011719 c 0.339843,0 1.230468,0 1.230468,-0.867187 0,-0.585938 -0.503906,-0.585938 -0.996093,-0.585938 H 5.0262813 c -0.6210938,0 -1.5351563,0 -2.765625,1.3125 -0.703125,0.7851566 -1.5585938,2.2148441 -1.5585938,2.3671879 0,0.1640625 0.12890625,0.2226562 0.29296875,0.2226562 0.18750005,0 0.21093755,-0.082031 0.35156255,-0.2460937 1.3945312,-2.2031254 2.7890625,-2.2031254 3.46875,-2.2031254 H 6.3505 c -0.5976562,2.0156254 -1.265625,4.3593754 -3.46875,9.0585941 -0.2226562,0.43359378 -0.2226562,0.49218753 -0.2226562,0.64453128 0,0.5625 0.4921875,0.703125 0.7265625,0.703125 0.7851562,0 0.9960937,-0.703125 1.3242187,-1.82812498 0.421875,-1.3710938 0.421875,-1.4296875 0.6914063,-2.5078125 z m 0,0"
         style="fill:#000000;fill-opacity:1;fill-rule:nonzero;stroke:none" />
      <path
         id="path3"
         d="m 34.164953,-6.2337969 h 7.125 c 0.386719,0 0.84375,0 0.84375,-0.4570312 0,-0.4921875 -0.433594,-0.4921875 -0.84375,-0.4921875 h -7.125 v -7.1250004 c 0,-0.375 0,-0.832031 -0.457031,-0.832031 -0.480469,0 -0.480469,0.433594 -0.480469,0.832031 v 7.1250004 h -7.125 c -0.375,0 -0.832031,0 -0.832031,0.4570312 0,0.4921875 0.421875,0.4921875 0.832031,0.4921875 h 7.125 v 7.12500003 c 0,0.37499997 0,0.83203127 0.457031,0.83203127 0.480469,0 0.480469,-0.4335938 0.480469,-0.83203127 z m 28.561524,2.0625 h -0.480469 c -0.269531,1.9101563 -0.492188,2.2382813 -0.597656,2.4023438 -0.128907,0.2109375 -2.074219,0.2109375 -2.449219,0.2109375 h -5.15625 c 0.960937,-1.0546875 2.847656,-2.9648438 5.132812,-5.1679688 1.640625,-1.5585937 3.550782,-3.3867186 3.550782,-6.0468746 0,-3.175782 -2.53125,-5.003907 -5.355469,-5.003907 -2.953125,0 -4.757813,2.613282 -4.757813,5.027344 0,1.054688 0.785157,1.183594 1.101563,1.183594 0.269531,0 1.078125,-0.164063 1.078125,-1.101563 0,-0.832031 -0.703125,-1.078125 -1.078125,-1.078125 -0.164063,0 -0.316406,0.03516 -0.433594,0.08203 0.515625,-2.285157 2.074219,-3.410157 3.714844,-3.410157 2.34375,0 3.878906,1.851563 3.878906,4.300782 0,2.34375 -1.371094,4.3593746 -2.90625,6.1054684 l -5.355469,6.04687498 V 5.78125e-4 h 9.46875 z m 0,0"
         style="fill:#000000;fill-opacity:1;fill-rule:nonzero;stroke:none" />
    </g>
  </g>
</svg>
