<?xml version="1.0" encoding="UTF-8" standalone="no"?>
<!-- Created with Inkscape (http://www.inkscape.org/) -->

<svg
   version="1.1"
   id="svg1"
   width="18.890625"
   height="15.812499"
   viewBox="0 0 18.890625 15.812499"
   xmlns="http://www.w3.org/2000/svg"
   xmlns:svg="http://www.w3.org/2000/svg">
  <defs
     id="defs1" />
  <g
     id="g1"
     transform="translate(-199.21875,-166.39062)">
    <path
       id="path1"
       d="m 6.959875,-10.137906 h 3.046875 c -0.7265625,3.0117185 -1.1835937,4.9687497 -1.1835937,7.1249997 0,0.375 0,3.28125005 1.1015625,3.28125005 0.5625002,0 1.0429692,-0.515625 1.0429692,-0.97265625 0,-0.12890625 0,-0.1875 -0.1875,-0.5859375 -0.726563,-1.8632813 -0.726563,-4.171875 -0.726563,-4.359375 0,-0.1640625 0,-2.0742188 0.574219,-4.488281 h 3.011719 c 0.339843,0 1.230468,0 1.230468,-0.867188 0,-0.585937 -0.503906,-0.585937 -0.996093,-0.585937 H 5.0262813 c -0.6210938,0 -1.5351563,0 -2.765625,1.3125 -0.703125,0.785156 -1.5585938,2.2148435 -1.5585938,2.3671872 0,0.1640625 0.12890625,0.2226563 0.29296875,0.2226563 0.18750005,0 0.21093755,-0.082031 0.35156255,-0.2460938 1.3945312,-2.2031247 2.7890625,-2.2031247 3.46875,-2.2031247 H 6.3505 c -0.5976562,2.0156247 -1.265625,4.3593747 -3.46875,9.0585935 -0.2226562,0.43359375 -0.2226562,0.4921875 -0.2226562,0.64453125 0,0.5625 0.4921875,0.703125 0.7265625,0.703125 0.7851562,0 0.9960937,-0.703125 1.3242187,-1.82812505 C 5.13175,-2.930875 5.13175,-2.9894688 5.4012813,-4.0675938 Z m 0,0"
       style="fill:#000000;fill-opacity:1;fill-rule:nonzero;stroke:none"
       aria-label="π"
       transform="matrix(1.3333333,0,0,1.3333333,198.28267,181.84533)" />
  </g>
</svg>
