<?xml version="1.0" encoding="UTF-8" standalone="no"?>
<!-- Created with Inkscape (http://www.inkscape.org/) -->

<svg
   version="1.1"
   id="svg1"
   width="38.289062"
   height="30.113281"
   viewBox="0 0 38.289062 30.113281"
   xmlns="http://www.w3.org/2000/svg"
   xmlns:svg="http://www.w3.org/2000/svg">
  <defs
     id="defs1" />
  <g
     id="g1"
     transform="translate(-198.75,-166.42187)">
    <g
       id="g2"
       aria-label="X&#10;π"
       transform="matrix(1.3333333,0,0,1.3333333,198.28267,190.90533)">
      <path
         id="path2"
         d="m 9.81925,-10.194625 3.972656,-5.730469 c 0.410157,-0.5625 1.21875,-1.722656 3.421875,-1.746094 v -0.691406 c -0.621093,0.04687 -1.640625,0.04687 -2.285156,0.04687 -0.890625,0 -1.992187,0 -2.660156,-0.04687 v 0.691406 c 0.855469,0.08203 1.066406,0.621094 1.066406,1.054688 0,0.316406 -0.128906,0.539062 -0.316406,0.808594 l -3.5507815,5.132812 -3.984375,-5.8125 c -0.1875,-0.292969 -0.2109375,-0.375 -0.2109375,-0.457031 0,-0.246094 0.2929688,-0.703125 1.1835938,-0.726563 v -0.691406 c -0.8671875,0.04687 -2.1796875,0.04687 -3.0703125,0.04687 -0.703125,0 -2.0390625,0 -2.6835938,-0.04687 v 0.691406 c 1.4765625,0 1.9570313,0.05859 2.5546875,0.890625 l 5.1914063,7.5820317 -4.6875,6.8085938 c -1.1484375,1.6640625 -2.90625005,1.6875 -3.4101563,1.6875 v 0.703125 c 0.62109375,-0.05859375 1.640625,-0.05859375 2.2851563,-0.05859375 0.7265625,0 1.9921875,0 2.6601562,0.05859375 v -0.703125 c -0.8320312,-0.0820313 -1.078125,-0.609375 -1.078125,-1.0429688 0,-0.3515625 0.140625,-0.5390625 0.2695313,-0.7265625 L 8.788,-8.7180625 l 4.6875,6.8320312 c 0.210938,0.3046875 0.210938,0.375 0.210938,0.4570313 0,0.2226562 -0.246094,0.6796875 -1.183594,0.7265625 v 0.703125 c 0.867187,-0.05859375 2.179687,-0.05859375 3.070312,-0.05859375 0.691407,0 2.039063,0 2.683594,0.05859375 v -0.703125 c -1.722656,0 -1.992187,-0.12890625 -2.519531,-0.8789063 z m 0,0"
         style="fill:#000000;fill-opacity:1;fill-rule:nonzero;stroke:none" />
      <path
         id="path3"
         d="m 23.524328,-3.0666953 h 2.132813 c -0.515625,2.10937499 -0.832032,3.48046874 -0.832032,4.9921875 0,0.2695312 0,2.296875 0.773438,2.296875 0.398437,0 0.738281,-0.3515625 0.738281,-0.6796875 0,-0.09375 0,-0.1289063 -0.140625,-0.4101563 -0.503906,-1.3007812 -0.503906,-2.91796871 -0.503906,-3.04687496 0,-0.1171875 0,-1.45312504 0.398437,-3.15234374 h 2.109375 c 0.246094,0 0.867188,0 0.867188,-0.5976563 0,-0.421875 -0.363281,-0.421875 -0.703125,-0.421875 h -6.1875 c -0.433594,0 -1.078125,0 -1.945313,0.9257813 -0.492187,0.5507812 -1.089843,1.546875 -1.089843,1.6640625 0,0.1054687 0.09375,0.140625 0.199218,0.140625 0.140625,0 0.152344,-0.046875 0.246094,-0.1640625 0.984375,-1.546875 1.957031,-1.546875 2.4375,-1.546875 h 1.066406 c -0.410156,1.4179687 -0.878906,3.04687499 -2.425781,6.3515625 -0.152344,0.2929687 -0.152344,0.3398437 -0.152344,0.4453125 0,0.3984375 0.339844,0.4921875 0.503907,0.4921875 0.550781,0 0.703125,-0.4921875 0.925781,-1.2773438 0.304687,-0.9609375 0.304687,-0.9960937 0.492187,-1.7578125 z m 0,0"
         style="fill:#000000;fill-opacity:1;fill-rule:nonzero;stroke:none" />
    </g>
  </g>
</svg>
